# xmcd
#
# Track frame offsets:
#	183
#	14458
#	23355
#	33618
#	46733
#	56493
#	68883
#	82490
#	92805
#	106258
#	117920
#	124270
#	134058
#	143058
#	153320
#	165683
#	175683
#	188283
#
# Disc length: 2653 seconds
#
# Revision: 2
# Processed by: cddbd v1.5.1PL2 Copyright (c) Steve Scherf et al.
# Submitted via: EasyCDDAExtractor 6.0.0.1
#
DISCID=ee0a5b12
DTITLE=Mickey Gilley - Country Music CM021
DYEAR=1999
DGENRE=Country
TTITLE0=I'll Make It All Up To You
TTITLE1=Is It Wrong
TTITLE2=Lonely Wine
TTITLE3=World Of My Own
TTITLE4=I'm Going To Put My Love In The Want Ads
TTITLE5=You Can Count Me Missing
TTITLE6=She's Still Got A Hold On Me
TTITLE7=Running Out Of Reason
TTITLE8=That Heart Belongs To Me
TTITLE9=Without You
TTITLE10=Boy Who Didn't Pass
TTITLE11=Fraulein
TTITLE12=I Ain't Going Home
TTITLE13=I Miss You So
TTITLE14=Just Out Of Reach
TTITLE15=Keepin' On Dreaming
TTITLE16=I Steel Care About You
TTITLE17=Grapewine
EXTD=
EXTT0=
EXTT1=
EXTT2=
EXTT3=
EXTT4=
EXTT5=
EXTT6=
EXTT7=
EXTT8=
EXTT9=
EXTT10=
EXTT11=
EXTT12=
EXTT13=
EXTT14=
EXTT15=
EXTT16=
EXTT17=
PLAYORDER=
